<?xml version="1.0" encoding="UTF-8"?>
<svg viewBox="0 0 64 64" xmlns="http://www.w3.org/2000/svg">
 <defs>
  <linearGradient id="a" x1=".32183" x2=".72837" y1=".247" y2=".85516">
   <stop stop-color="#d3cece" offset="0"/>
   <stop stop-color="#474240" offset="1"/>
  </linearGradient>
 </defs>
 <g stroke-linecap="round" stroke-linejoin="round" stroke-width="2">
  <path d="m54.5 31c0 12.42-10.08 22.5-22.5 22.5s-22.5-10.08-22.5-22.5 10.08-22.5 22.5-22.5 22.5 10.08 22.5 22.5z" fill="#3f3f3f"/>
  <path d="m36.812 13.438c-0.34811 0.04334-0.64629 0.26995-0.78125 0.59375l-10.188 24.906-7.4062-10.594c-0.18921-0.27883-0.50872-0.4405-0.84545-0.42779-0.33672 0.012711-0.64314 0.198-0.8108 0.49029l-3.625 6.0312c-0.22503 0.38511-0.16074 0.87371 0.15625 1.1875l12.062 12.062c0.19362 0.19308 0.45929 0.29621 0.73247 0.28434 0.27319-0.011879 0.5289-0.13768 0.70503-0.34684l22.938-26.562c0.19135-0.22919 0.26742-0.53329 0.20653-0.82558-0.060902-0.29229-0.25207-0.54071-0.51903-0.67442l-12.062-6.0312c-0.17401-0.08648-0.36985-0.11912-0.5625-0.09375z" fill="url(#a)"/>
  <path d="m37.188 15.125l-10.406 25.469c-0.11837 0.28395-0.38217 0.48074-0.68808 0.51329-0.30591 0.032539-0.60521-0.10435-0.78067-0.35704l-7.625-10.906-3.0312 5 11.406 11.406 22.125-25.625-11-5.5z"/>
 </g>
</svg>
